<svg width="406" height="94" viewBox="0 0 406 94" xmlns="http://www.w3.org/2000/svg" title="New&nbsp;York&nbsp;Times / Wirecutter" class="m-company-logo__inline m-company-logo__inline--wirecutter-mono-light"><path d="M44.94 0C69.77 0 89.9 20.48 89.9 45.73c0 25.26-20.12 45.74-44.95 45.74C20.12 91.47 0 70.99 0 45.73 0 20.48 20.12 0 44.94 0zM29.71 34.97l-.15.15-.29.3a28.62 28.62 0 01-5.35 4.28l-.53.31v24.24c-.4 1.4-.1 2.96.85 4.12l.16.2a4.39 4.39 0 005.8.63h.03l.2-.15c.47-.37.86-.84 1.15-1.37l14.41-22.22v18.83a4.6 4.6 0 00.25 3.3 4.43 4.43 0 007.8.37l22.8-35.17a4.57 4.57 0 00-1.27-6.25 4.38 4.38 0 00-6.16 1.27L54.73 50.48V31.54a4.57 4.57 0 00-1.63-4.88l-.19-.13-.02.02-.2-.13a4.38 4.38 0 00-5.95 1.4L32.12 50.38v-18.8l-.08.25c-.08.25-.19.48-.31.7l-.08.13-.05.1-.15.2-.05.07-.1.14-.17.2-.02.02.15-.17.14-.19.13-.18.12-.2.11-.19c.88-1.65.7-3.74-.57-5.21l-.15-.17-.16-.17a4.47 4.47 0 00-6.23.05l-.13.13-.3.31c-2.95 3.51-6 5.5-9.03 5.91a4.53 4.53 0 00-3.7 2.79 4.67 4.67 0 00.61 4.63 4.49 4.49 0 004.27 1.7 19.38 19.38 0 007.01-2.41 28.6 28.6 0 005.9-4.6l.28-.3.14-.15.32-.35-.31.35z"></path><path d="M54.73 50.5V31.52c-.13.45-.32.88-.58 1.27L46 45.4v19.16c.11-.56.32-1.1.63-1.57l8.1-12.48zm-22.6-.1V31.59a4.6 4.6 0 01-1.17 1.97A28.67 28.67 0 0123.39 40v24.27c.12-.45.31-.88.56-1.27l8.17-12.61z" opacity=".3"></path><path d="M119.72 90.59h-2.61l-1.15-3.83h-4.66l-1.12 3.83H108l4.5-14.42h2.71l4.51 14.42zm-4.31-5.83l-1.75-6.03-1.78 6.03h3.53zm21.02 5.83h-2.08l-6.33-11.04V90.6h-2.06V76.17h2.8l5.61 9.79v-9.79h2.06V90.6zm10.76-4.82h-6.73c0 2.07 1.12 3.3 2.61 3.3a2.87 2.87 0 002.55-1.7l1.55.87a4.74 4.74 0 01-4.3 2.6c-2.93 0-4.67-2.25-4.67-5.28 0-3.02 1.7-5.65 4.57-5.65a3.92 3.92 0 013.6 2.07 7.1 7.1 0 01.8 3.56l.02.23zm-2.26-1.5c0-1.51-.65-2.68-2.06-2.68-.65 0-1.28.29-1.72.8a2.6 2.6 0 00-.63 1.87h4.41zm15.68-4.16l-3.05 10.48h-1.64l-1.96-7.33-1.96 7.33h-1.67l-3.01-10.48h2.3l1.8 7 1.92-7h1.63l1.93 7.06 1.88-7.06h1.83zm14.67-3.94l-4.58 8.5v5.92h-2.5v-5.87l-4.66-8.54h2.76l3.36 6.38 3.3-6.38h2.32zm3.42 14.64c-2.7 0-4.58-2.18-4.58-5.48 0-2.9 1.56-5.46 4.58-5.46 2.82 0 4.57 2.22 4.57 5.46 0 3.23-1.83 5.48-4.57 5.48zm0-9.19c-1.68 0-2.22 1.57-2.22 3.7 0 2.15.56 3.74 2.22 3.74 1.65 0 2.21-1.53 2.21-3.73 0-2.05-.5-3.68-2.21-3.68v-.03zm11.85.92h-.06a4.3 4.3 0 00-1.2-.17c-.9 0-1.75.44-2.28 1.21v7h-2.25V80.12h2.18v2.03a4.64 4.64 0 013.62-2.22v2.62zm9.78 8.05h-2.47l-2.54-5.09-1.48 1.84v3.24h-2.26v-14.4h2.26v8.89l3.89-4.96h2.33l-3.13 3.68 3.4 6.8zm13.59-12.25h-3.83V90.6h-2.5V78.34h-3.86v-2.16h10.19v2.16zm3.4.06h-2.27v-2.23h2.3l-.03 2.23zm0 12.19h-2.27V80.1h2.26l.01 10.48zm15.94 0H231v-7.13c0-.9-.32-1.65-1.44-1.65-.88 0-1.71.8-2.12 1.2v7.57h-2.26v-7.12c0-.9-.3-1.65-1.43-1.65-.88 0-1.74.82-2.12 1.21v7.56h-2.26V80.1h2.23v1.54a4.08 4.08 0 013.19-1.73 2.41 2.41 0 012.43 1.88c.8-.86 1.68-1.85 3.38-1.85 1.03-.05 1.98.6 2.36 1.6.2.59.3 1.2.3 1.82l.01 7.22zm10.43-4.82h-6.73c0 2.07 1.13 3.3 2.62 3.3a2.87 2.87 0 002.54-1.7l1.56.87a4.74 4.74 0 01-4.3 2.57c-2.94 0-4.69-2.25-4.69-5.27 0-3.03 1.7-5.66 4.58-5.66a3.92 3.92 0 013.6 2.08 7.1 7.1 0 01.8 3.56l.02.25zm-2.26-1.5c0-1.51-.65-2.68-2.06-2.68-.65 0-1.27.29-1.72.8a2.6 2.6 0 00-.63 1.87h4.41zm7.2 6.54c-1.84 0-3.26-.6-4.13-2.33l1.54-1.11a2.88 2.88 0 002.74 1.7c1 0 1.9-.42 1.9-1.29 0-.6-.33-.97-1.17-1.2-.83-.21-1.69-.26-2.48-.52-1.52-.54-2.18-1.47-2.18-2.95.02-.94.46-1.81 1.19-2.35.75-.6 1.67-.9 2.61-.88a3.97 3.97 0 013.81 2.08l-1.63 1.06a2.46 2.46 0 00-2.2-1.5c-1.04 0-1.74.57-1.74 1.3 0 .57.38.92 1.16 1.11.6.15 1.16.25 2.02.45 1.58.37 2.72 1.25 2.72 3 0 2.04-1.78 3.43-4.15 3.43zm20.03-4.77c-.8 3.38-2.81 4.84-5.44 4.84-3.27 0-5.67-2.71-5.67-7.4 0-4.35 2.21-7.48 5.85-7.48 2.92 0 4.66 2 5.13 4.85l-2.48.26c-.24-1.6-1.05-3.1-2.76-3.1-2.04 0-3.13 2.07-3.13 5.39 0 3.76 1.38 5.33 3.27 5.33 1.7 0 2.9-1.25 3.38-3.23l1.85.54zm5.47 4.77c-2.7 0-4.57-2.18-4.57-5.48 0-2.9 1.55-5.46 4.57-5.46 2.82 0 4.58 2.22 4.58 5.46 0 3.23-1.84 5.48-4.58 5.48zm0-9.19c-1.67 0-2.21 1.57-2.21 3.7 0 2.15.56 3.74 2.21 3.74 1.66 0 2.22-1.53 2.22-3.73 0-2.05-.5-3.68-2.22-3.68v-.03zm19.96 8.97h-2.28v-7.13c0-.9-.31-1.65-1.44-1.65-.87 0-1.7.8-2.11 1.2v7.57H286v-7.12c0-.9-.3-1.65-1.44-1.65-.87 0-1.73.82-2.12 1.21v7.56h-2.25V80.1h2.2v1.54a4.08 4.08 0 013.19-1.73 2.4 2.4 0 012.45 1.86c.8-.87 1.67-1.86 3.38-1.86 1.02-.05 1.97.6 2.35 1.6.2.59.3 1.2.3 1.82l.03 7.25zm6.94.22a3.73 3.73 0 01-2.68-1.3V94h-2.23V80.1h2.22v1.28a3.69 3.69 0 012.91-1.46c2.4 0 3.6 2.35 3.6 5.46-.03 3.83-1.86 5.43-3.82 5.43zm-.65-9.12c-.77.06-1.49.44-2 1.05v5.4c.56.52 1.27.84 2.02.9 1.53 0 2.1-1.54 2.1-3.62-.04-2.68-.77-3.73-2.16-3.73h.04zm13.95 8.9h-2.26a7.82 7.82 0 01-.17-1.17 5 5 0 01-3.06 1.38c-1.6 0-3.17-.89-3.17-2.9 0-2.16 1.85-3.7 6.16-3.96v-.69c0-.93-.48-1.63-1.9-1.63a1.83 1.83 0 00-1.83 1.74l-2-.46c.39-1.83 1.64-2.94 4.04-2.94 1.66 0 2.53.38 3.27 1.23.47.65.67 1.46.58 2.27v4.98a6 6 0 00.32 2.08l.02.07zm-2.49-5.27c-2.48.3-3.87.99-3.87 2.3 0 .7.28 1.46 1.62 1.46a3.4 3.4 0 002.25-.95v-2.81zm12.47 5.27h-2.27v-7.07c0-.97-.39-1.7-1.54-1.7-.86.1-1.65.54-2.24 1.2v7.56h-2.25V80.1h2.21v1.56a4.26 4.26 0 013.3-1.75 2.55 2.55 0 012.48 1.6c.22.6.33 1.23.3 1.86l.01 7.2zM334 80.1l-3.71 10.95c-.76 2.22-1.78 2.94-3.54 2.94-.44 0-.87-.04-1.3-.1v-1.92c.3.05.93.1 1.2.1 1.12 0 1.7-.4 1.86-1.38 0-.12-.32-1.13-.39-1.38l-3.27-9.2h2.4l2.45 7.55 2.41-7.56H334zm-34.97-48.41v31.36h-10.07v-4.87c-1.66 3.53-5.13 5.71-9.78 5.71-8.33 0-10.97-5.79-10.97-12.5V31.71h9.99v17.23c0 4.44 1.46 6.92 5.13 6.92 3.68 0 5.62-3.17 5.62-8.2l.01-15.97h10.07zm64.6-.85c10.1 0 15.43 6.95 15.56 15.36v3.41h-22.2c.27 4.18 3.32 6.58 7.21 6.58 2.94 0 4.97-.98 6.18-3.07l.13-.23 8.08 1.27c-1.98 6.24-7.25 9.73-14.74 9.73-9.79 0-16.73-6.14-16.73-16.03s7.08-17.02 16.52-17.02zm-47.92-7.23v8.08h6.86v7.13h-6.86v12.33c0 2.72.48 5.08 3.6 5.08.96.05 1.92-.02 2.86-.2l.4-.09v7.2c-2.37.52-4.79.77-7.21.75-4.92 0-9.37-2.12-9.51-8.91V38.79h-4.3v-7.15h1.77c3.54 0 5.53-2.94 5.99-5.77l.03-.21.19-2.05h6.18zm23.06 0v8.08h6.87v7.13h-6.87v12.33c0 2.72.49 5.08 3.61 5.08.96.05 1.92-.02 2.86-.2l.4-.09v7.2c-2.37.52-4.79.77-7.21.75-4.92 0-9.36-2.12-9.5-8.91V38.79h-4.31v-7.15h1.77c3.54 0 5.53-2.94 5.99-5.77l.03-.21.19-2.05h6.17zm-123.51 7.23c10.08 0 15.42 6.95 15.55 15.36v3.41H208.6c.28 4.18 3.33 6.58 7.22 6.58 2.95 0 4.95-.97 6.17-3.05l.13-.23 8.1 1.27c-1.98 6.22-7.23 9.7-14.72 9.7-9.79 0-16.73-6.16-16.73-16.03 0-9.88 7.05-17.01 16.49-17.01zm34.58-.02c8.74 0 13.8 5.57 14.93 12.56l.05.31-8.3 1.02c-.75-4-2.95-6.12-6.58-6.12-3.89 0-6.6 2.76-6.6 8.76s2.71 8.75 6.6 8.75c3.02 0 5.04-1.52 6.08-4.38l.09-.27 8.36 1.27c-1.55 6.35-6.51 11.12-14.63 11.12-9.64 0-16.66-6.64-16.66-16.5 0-9.87 7.02-16.52 16.66-16.52zm-134.15.89l6.28 19.04h.3l5.23-19.04h8.57l5.26 19.04h.3l6.27-19.04h9.7l-10.42 31.36h-10.43l-5.32-18.93h-.29l-5.24 18.93h-10.4L105.07 31.7h10.61zm82.17.4l-.63 9.53a9.77 9.77 0 00-5.28-1.27c-4.16 0-6.94 2.4-6.94 7.85v14.83h-9.98V31.69h9.98v5.71l.09-.24c1.24-3.42 4.38-6.33 8.45-6.33a6.96 6.96 0 014.3 1.27zm207.17 0l-.63 9.53a9.77 9.77 0 00-5.28-1.27c-4.16 0-6.93 2.4-6.93 7.85v14.83h-9.99V31.69h9.99v5.71l.08-.24c1.24-3.42 4.38-6.33 8.45-6.33a6.96 6.96 0 014.3 1.27zm-235.13-.43v31.36h-10V31.68h10zm45.3 6.57c-3.94 0-5.82 2.5-6.4 5.7l-.04.23h12.4c-.2-3.1-2.15-5.93-5.96-5.93zm148.38 0c-3.94 0-5.82 2.5-6.42 5.7l-.04.23h12.43c-.21-3.1-2.15-5.93-5.97-5.93zM164.63 14.51c3.37 0 6.1 2.79 6.1 6.22a6.16 6.16 0 01-6.1 6.22 6.16 6.16 0 01-6.11-6.22 6.16 6.16 0 016.1-6.22z"></path></svg>