<svg xmlns="http://www.w3.org/2000/svg" viewBox="0 0 49.07 6.46" title="New York Times" class="m-company-logo__inline m-company-logo__inline--new-york-times-mono-light"><path d="M3.68.66c0-.53-.5-.68-.9-.66v.08c.24.01.43.1.43.26 0 .11-.08.26-.33.26-.2 0-.57-.12-.88-.22-.34-.11-.65-.22-.92-.22-.52 0-.91.39-.91.86 0 .4.29.53.4.58l.05-.06c-.08-.05-.16-.11-.16-.26 0-.12.1-.3.37-.3.24 0 .56.1.98.23.36.1.76.2.98.22v.83l-.4.33v.03l.4.36v1.14c-.21.12-.45.15-.66.15-.39 0-.76-.1-1.05-.43l1.1-.52V1.49l-1.35.6c.14-.35.42-.59.7-.76l-.01-.06C.72 1.48 0 2.2 0 3.1 0 4.2.88 5 1.87 5a1.7 1.7 0 001.76-1.74h-.07c-.16.34-.38.66-.68.83v-1.1l.43-.34V2.6l-.43-.34v-.83c.4 0 .8-.27.8-.77zM1.37 3.61l-.33.16c-.18-.24-.3-.56-.3-1.01 0-.19.02-.42.07-.57l.56-.25zm2.82.6l-.35.26.04.05.17-.12.6.55.8-.54-.04-.05-.2.13-.27-.26V2.4l.22-.16.45.37v1.62c0 1.01-.22 1.18-.68 1.34v.07c.76.03 1.44-.22 1.44-1.52V2.38l.24-.19-.04-.05-.21.16-.66-.57-.76.58V.1h-.06l-.94.63V.8c.1.06.25.1.25.41zm4.88-.29l-.66.5-.68-.53v-.31L9 2.73V2.7l-.63-.96-1.38.74v1.75l-.27.2.04.06.25-.2.9.66L9.11 4zm-1.34-.44v-1.3l.05-.04.58.92zM14.17.42a.75.75 0 00-.05-.25h-.06c-.08.23-.19.35-.45.35a.71.71 0 01-.5-.25l-.76.89.06.05.22-.24c.16.12.29.24.65.25v2.22L11.72.74c-.12-.2-.32-.51-.7-.51-.42 0-.8.36-.75.97h.07c.02-.16.1-.34.29-.34.15 0 .28.14.35.27V2c-.48 0-.8.22-.8.61 0 .2.1.55.44.61v-.06c-.04-.04-.09-.1-.09-.18 0-.15.11-.24.3-.24l.15.01v1.13c-.57 0-1 .32-1 .85 0 .51.43.75.89.73v-.07c-.28-.03-.43-.16-.43-.35 0-.23.16-.35.37-.35.22 0 .4.14.54.29l.77-.86-.06-.05-.2.22c-.3-.26-.46-.36-.8-.4V1.2l2.16 3.75h.15V1.22c.41-.02.8-.34.8-.8zm1.93 3.5l-.66.5-.68-.53v-.31l1.27-.85V2.7l-.63-.96-1.38.74v1.75l-.27.2.04.06.25-.2.9.66 1.2-.95-.04-.07zm-1.34-.44v-1.3l.05-.04.58.92zm5.7-1.46l-.2.15-.5-.43-.59.53.24.23v2l-.65-.41V2.46l.21-.15-.62-.58-.58.54.24.23v1.9l-.08.06-.56-.4v-1.6c0-.38-.18-.48-.42-.63-.2-.12-.28-.22-.28-.4 0-.16.15-.25.23-.3v-.06c-.21 0-.78.22-.79.74 0 .26.12.38.25.5.14.13.26.25.26.47v1.55l-.29.22.05.06.26-.2.7.54.67-.45.74.45 1.41-.82v-1.8l.35-.25-.04-.06zM25.42.55l-.26.25-.6-.53-.87.65v-.6h-.09l.02 4.32c-.09-.02-.31-.07-.52-.1L23.08.93a.63.63 0 00-.67-.64c-.49 0-.8.38-.8.75h.07c.02-.16.1-.3.27-.3.16 0 .3.1.3.46v1.04c-.49.02-.77.3-.77.63 0 .21.1.54.44.55l.01-.07c-.11-.05-.14-.12-.14-.18 0-.15.15-.22.35-.22h.1v1.66c-.39.13-.57.41-.57.74 0 .44.36.78.88.78.37 0 .68-.06 1.02-.14.27-.06.6-.12.76-.12.2 0 .3.1.3.24 0 .18-.09.25-.2.29l.02.06c.44-.08.69-.34.69-.74 0-.4-.39-.64-.82-.64-.22 0-.66.07-1 .14-.36.08-.73.12-.85.12-.18 0-.41-.09-.41-.33 0-.23.18-.4.64-.4.25 0 .53.03.83.1.33.07.61.16.9.16.38 0 .73-.14.73-.7V.87l.3-.26zm-1.1 1.65a.45.45 0 01-.32.15c-.14 0-.25-.09-.32-.15V1l.27-.18.37.33zm0 .8a.46.46 0 00-.32-.14.53.53 0 00-.32.13v-.7c.06.05.18.14.32.14s.26-.07.32-.14zm0 1.24c0 .21-.15.42-.43.42l-.21-.01V3.09a.5.5 0 01.32-.15c.14 0 .24.08.32.15zm3.64-1.9l-.86-.61-1.3.74v1.74l-.26.22.04.05.2-.17.86.63 1.32-.8zm-1.41 1.69v-1.9l.67.48v1.9zM30.5 1.8h-.05a.38.38 0 01-.23.1.42.42 0 01-.3-.14h-.05l-.45.5-.47-.5-.79.55.04.06.21-.14.28.3V4.2l-.36.27.04.05.18-.12.64.55.83-.55-.04-.06-.23.14-.32-.28V2.32c.14.15.3.28.48.28.36 0 .55-.4.6-.8zm3.2 2.56l-.9.6-1.23-1.87.87-1.35h.06c.1.1.27.2.44.2.18 0 .31-.1.39-.2h.05c-.03.54-.4.84-.67.84-.28 0-.41-.13-.56-.22l-.08.13 1.33 1.97.27-.17zm-2.93-.15l-.35.26.04.05.17-.12.6.55.8-.54-.04-.05-.2.13-.27-.26V.11h-.05l-.97.64v.06c.1.06.27.08.27.4zM38.14.66c0-.53-.5-.68-.9-.66v.08c.24.01.43.1.43.26 0 .11-.08.26-.33.26-.2 0-.57-.12-.88-.22-.34-.11-.65-.22-.92-.22-.52 0-.91.39-.91.86 0 .4.29.53.4.58l.05-.06c-.08-.05-.16-.1-.16-.26 0-.12.1-.3.37-.3.24 0 .56.1.98.23.36.1.76.2.98.22v.83l-.4.33v.03l.4.36v1.14c-.21.12-.45.15-.66.15-.39 0-.76-.1-1.05-.43l1.1-.52V1.49l-1.35.6c.14-.35.42-.59.7-.76l-.01-.06c-.8.21-1.52.94-1.52 1.84 0 1.08.88 1.88 1.87 1.88a1.7 1.7 0 001.76-1.74h-.07c-.16.34-.38.66-.68.83v-1.1l.43-.34V2.6l-.43-.34v-.83c.4 0 .8-.27.8-.77zm-2.31 2.95l-.33.16c-.18-.24-.3-.56-.3-1.01 0-.19.02-.42.07-.57l.56-.25V3.6zm3.23-3.2h-.04l-.53.45V.9l.45.5h.04l.54-.44-.01-.03-.45-.52zm.81 3.95l-.2.13-.26-.26V2.4l.25-.2-.05-.05-.2.15-.46-.56-.76.54.04.07.2-.13.23.3v1.72l-.34.26.03.05.18-.13.59.54.8-.54zm4.45-.03l-.2.12-.28-.26V2.4l.27-.21-.04-.06-.24.18-.6-.57-.8.56-.6-.56-.77.56-.48-.56-.76.54.04.07.19-.13.26.29v1.72l-.21.21.6.52.6-.54-.24-.22V2.4l.23-.16.41.38v1.61l-.2.21.61.52.58-.54-.24-.22V2.37l.2-.13.44.37V4.2l-.18.18.62.57.82-.56zm2.31-.41l-.65.5-.68-.53v-.31l1.26-.85V2.7l-.62-.96-1.38.74v1.8l.92.67 1.2-.95zm-1.33-.44v-1.3l.04-.04.59.92zm3.77-.25l-.51-.38c.34-.3.47-.7.47-.98V1.7h-.07c-.05.14-.15.26-.36.26-.2 0-.35-.11-.48-.25l-1.2.65v.97l.44.35c-.45.4-.53.68-.53.89 0 .26.12.45.35.54l.03-.06c-.06-.05-.1-.08-.1-.2 0-.09.1-.21.3-.21.26 0 .42.17.5.27l1.16-.7zm-.28-.8c-.18.32-.6.63-.82.8l-.3-.22v-.95c.12.26.4.47.7.47a.8.8 0 00.42-.1zm-.47 2.12a.87.87 0 00-.77-.51c-.07 0-.3 0-.5.13.12-.2.48-.59.94-.86l.33.25z"></path></svg>