<svg width="138" height="26" viewBox="0 0 138 26" xmlns="http://www.w3.org/2000/svg" title="MGM" class="m-company-logo__inline m-company-logo__inline--mgm-mono-light"><path d="M37.98 8.14h1.75v9.57h-1.76V11.4l-2.6 4.7h-1.02l-2.6-4.7v6.32H30V8.14h1.77l3.11 5.55 3.1-5.55zm12.22 9.32c-1.1.27-2.14.41-3.12.41a5.47 5.47 0 01-3.94-1.43 4.64 4.64 0 01-1.45-3.5c0-1.45.5-2.64 1.5-3.56A5.52 5.52 0 0147.05 8c.93 0 1.83.1 2.7.32l-.25 1.52c-.74-.13-1.5-.2-2.25-.22-1.2 0-2.12.3-2.76.87-.64.57-.96 1.4-.96 2.45 0 .98.3 1.78.92 2.4.6.6 1.44.91 2.48.91.5 0 1.03-.04 1.57-.12v-3.2h1.7v4.53zm12.04.26h-1.75V11.4l-2.61 4.7h-1.02l-2.6-4.7v6.32h-1.75V8.14h1.77l3.1 5.55 3.1-5.55h1.76v9.58zm12.3-6.59c0-.44-.15-.8-.44-1.07-.3-.28-.66-.42-1.1-.42h-2.8v3.02H73c.43 0 .8-.14 1.1-.43.28-.28.43-.65.43-1.1h.01zm2.88 6.58h-2.26l-2.63-3.62h-2.34v3.62h-1.84V8.14h4.98c.9 0 1.65.3 2.25.9.56.57.84 1.27.84 2.1a2.83 2.83 0 01-1.86 2.7l2.86 3.87zm8.38.01h-6.86V8.14h6.87v1.58h-5.03v2.26h4.72v1.58h-4.72v2.57h5.03l-.01 1.6zm9.5-2.62c0 .84-.37 1.51-1.1 2.02-.73.5-1.68.75-2.84.75a9.62 9.62 0 01-3.97-.79l.4-1.42c1.27.44 2.45.66 3.54.66 1.43 0 2.14-.39 2.14-1.16 0-.32-.17-.58-.5-.78-.26-.16-.91-.44-1.95-.82-.9-.28-1.74-.7-2.5-1.25a2.25 2.25 0 01-.76-1.8c0-1.67 1.28-2.5 3.82-2.5 1.24 0 2.4.14 3.45.45l-.27 1.48a14.37 14.37 0 00-3.15-.36 4.4 4.4 0 00-1.57.2.7.7 0 00-.45.7c0 .33.18.61.56.84.27.15.97.45 2.1.9 1.22.47 2 .86 2.35 1.15.46.4.7.97.7 1.73zm8.97-2.16c0-.96-.27-1.76-.8-2.38a2.7 2.7 0 00-2.16-.94c-.9 0-1.62.32-2.15.94-.53.62-.8 1.42-.8 2.38 0 .97.26 1.76.8 2.36.53.63 1.25.95 2.15.95.9 0 1.62-.32 2.17-.95.52-.6.79-1.39.79-2.36zm1.82 0c0 1.37-.46 2.54-1.38 3.5a4.54 4.54 0 01-3.4 1.43 4.54 4.54 0 01-3.4-1.43 4.86 4.86 0 01-1.39-3.5 4.9 4.9 0 011.38-3.5A4.53 4.53 0 01101.3 8c1.36 0 2.5.48 3.41 1.44.9.94 1.4 2.2 1.38 3.5zm8.13-1.8c0-.45-.15-.8-.44-1.08-.3-.28-.67-.42-1.1-.42h-2.81v3.02h2.81c.44 0 .8-.14 1.1-.43.3-.28.44-.65.44-1.1zm2.87 6.57h-2.25l-2.63-3.62h-2.34v3.62h-1.84V8.14H113c.9 0 1.65.3 2.25.9.56.57.84 1.27.84 2.1.02 1.2-.73 2.3-1.87 2.7l2.86 3.87h.01zm8.53-7.97h-3.17v7.97h-1.83V9.74h-3.19v-1.6h8.2l-.01 1.6zm8.88 5.36c0 .84-.37 1.51-1.1 2.02a4.9 4.9 0 01-2.84.75 9.62 9.62 0 01-3.97-.79l.4-1.42c1.28.44 2.46.66 3.54.66 1.43 0 2.14-.39 2.14-1.16 0-.32-.17-.58-.5-.78-.26-.16-.9-.44-1.94-.82-.9-.28-1.74-.7-2.5-1.25a2.26 2.26 0 01-.77-1.8c0-1.67 1.28-2.5 3.83-2.5 1.23 0 2.38.14 3.45.45l-.28 1.48a14.35 14.35 0 00-3.14-.36 4.4 4.4 0 00-1.58.2.7.7 0 00-.45.7c0 .33.19.61.56.84.27.15.97.45 2.11.9 1.2.47 1.99.86 2.35 1.15.46.4.68.97.68 1.73h.01zm1.51-6.15h-.17v-.8h-.3V8h.79v.15H136v.8zm1.5 0h-.15V8.3l-.28.63h-.12l-.28-.63v.66h-.16V8h.2l.3.69.3-.69h.2v.95zm-133.07.2c-.23-.84.61-1.11.61-1.11s.43.4.1.94c-.12.15-.4.25-.71.17zm6.52 4.69c1.08-.52 2.2-1.52 2.29-1.59.16.1.34.14.53.14 0 0-.26.92-.36 1.2-.1.28-.2 0-.2 0l-.14-.52c-.53.24-1.47.85-1.47.85s-.07.52-.12.76c-.05.24-.2.25-.25.05-.05-.2-.28-.9-.28-.9zm1.68 2.63v.01s.17-.23.2 0c.04.24.05.96.05.96s-1.57.47-2.88.55l.3-1.02c.02-.1.16-.44.24-.1.1.4.1.52.1.52s.92-.31 1.73-.33c.15-.31.26-.59.26-.59zm12.04 8.2h-.02V1.33H13A13.82 13.82 0 0119.4 13c0 4.73-2.41 9.13-6.4 11.67h11.68zm-14.77 0h.88c2.55-1.23 4.92-3.55 5.07-6.47.31-2.26.13-4.58-1.5-6.16-.2.03-.5.12-1.06-.23-.69.63-1.71 1.3-2.4 1.74-.7.43-2.03.34-2.16-.75 0-.03 0-.06 0 0-1.13.69-1.26 2.14-1.06 3.14.2 1.15 1.63 2.23 2.39 2.27 1.26.2 2.4-.38 3.53-.75.25.11.37.4.28.66l-.1.12c.68 1 .23 1.85.03 2.03-.96.98-2.4.96-3.03.89a4.28 4.28 0 01-.87 3.5zm-1.03 0l.31-.35c2.72-3.53-2.69-5.18-2.46-8.94.11-1.91.78-2.44 1.82-3.46l-.02-.02h.02l-.06-.02-.06-.03-.03.02-3.8-.74 2.58 1.5c-.5.35-.93.73-1.32 1.16-2.4 2.72 2.18 7.91-.25 10.88h3.27zm-4.32-.2h-.01c1-1.24 1.13-2.39.8-3.54-.6-1.9-1.15-3.92-.98-5.91a4.02 4.02 0 01-3.04-1.64v11.3h3.05l.18-.2zM1.32 1.88v3.69c.77.29 1.38.57 2.07.37 1.02-.28 1.26-1.26.82-2.33a3.93 3.93 0 00-2.89-1.73zm6.6-.55H1.7a5.1 5.1 0 011.82.52c1.32.7 2.14 2.02 1.82 3.55 0 0 1.21-.42 2.6-.3.62-.72.73-2.35.42-2.98l-.03-.14a3.99 3.99 0 00-.4-.65zM9.1 9.5a27.92 27.92 0 00-2.97-1.75c-1.51-.7-2.2 1.57-3.52 1.01.34.4.77.92 1.32 1 1.02.14 1.83-.86 2.29-1.16.25-.2 2.88.9 2.88.9zm4.93.1l.01-.01c1.07.26.93 1.68.8 1.88 2.33 2.4 1.97 6.68.84 9.46 2.25-2.08 2.76-5.94 2.6-8.91-.08-.47-.72-4.17-5.1-3.65l.04.02c.25.21.39.35.45.67-.5 1.43-2.08.43-3.16.9.52 1.23 1.9.43 2.53.87.75.34.75-.85 1-1.23zm-2.32-6.37c-1.14.06-2.6 1.29-3.04 1.98.9.1 2.02.63 2.27 1.46-.29-.2-.77-.46-1.41-.15.97.4 1.93.84 2.87 1.3.75-.16 4.4-.72 5.67 2.39-.08-.42-.16-.8-.26-1.12-.75-2.58-3.02-6.06-6.1-5.86zm-1.03-1.89h-1.8c.33.65.35 1.45.43 2.14a3.75 3.75 0 013.53-.87c-.67-.5-1.4-.92-2.16-1.27zM0 26V0h26v26H0z" fill="#FFF"></path></svg>