<svg xmlns="http://www.w3.org/2000/svg" width="400" height="57" viewBox="0 0 400 57" title="Crunchbase" class="m-company-logo__inline m-company-logo__inline--crunchbase-mono-light"><path fill-rule="evenodd" d="M312.125 41.503h-.005a10.832 10.832 0 01-.758 1.431 11.088 11.088 0 01-1.947 2.327l-.083.074a10.994 10.994 0 01-5.46 2.616c-.115.02-.23.036-.347.055a10.348 10.348 0 01-2.671.043c-.05-.006-.098-.017-.147-.021a11.14 11.14 0 01-1.036-.175l-.03-.006a11.096 11.096 0 01-7.515-5.99l-.076-.162a10.624 10.624 0 01-.533-1.385c-.004-.01-.006-.023-.01-.04a10.756 10.756 0 01-.303-1.343 11.056 11.056 0 01-.162-1.81c0-6.065 4.933-10.999 10.998-10.999.386 0 .76.045 1.136.084a11 11 0 018.812 6.252h.002a10.951 10.951 0 01.134 9.05v-.001zm.698-20.094a18.91 18.91 0 00-9.377-3.309 19.236 19.236 0 00-1.406-.061c-10.536 0-19.076 8.542-19.076 19.078 0 5.798 2.595 10.985 6.678 14.48a19.005 19.005 0 005.494 3.288 19.011 19.011 0 006.904 1.308c3.982 0 7.671-1.223 10.724-3.306v1.998h7.826V19.344h-7.775l.008 2.065zm43.725 8.382v.181h-7.739v-.181c0-2.844-3.445-4.61-6.634-4.61-3.201 0-6.622 1.2-6.622 4.565 0 2.15 3.376 3.123 4.827 3.445l6.6 1.49c7.55 1.746 9.376 6.066 9.551 9.45h.006l.011.18c0 5.804-4.444 11.7-14.37 11.792-9.93-.091-14.373-5.988-14.373-11.793v-.178h7.74v.178c0 2.849 3.442 4.61 6.63 4.61 2.774 0 6.617-1.593 6.634-4.588h-.004c-.239-2.186-3.138-3.142-4.844-3.517l-6.598-1.491c-7.494-1.736-9.336-6.005-9.543-9.352h-.009l-.006-.183.002-.051-.013-.192.017-.004c.124-5.703 4.591-11.45 14.362-11.542 9.931.094 14.375 5.99 14.375 11.791zm-88.171 8.79c-.015.116-.037.231-.054.346-.079.456-.174.908-.302 1.342l-.01.043c-.146.475-.327.937-.533 1.383-.028.055-.052.108-.077.161a11.096 11.096 0 01-7.516 5.99l-.031.007c-.34.077-.684.13-1.034.175-.05.004-.098.017-.149.021-.387.043-.784.066-1.184.066a11.026 11.026 0 01-1.836-.164 10.906 10.906 0 01-5.456-2.616 10.96 10.96 0 01-2.077-2.475 10.953 10.953 0 01-.711-1.357h-.007a10.986 10.986 0 01-.911-4.386c0-1.67.379-3.247 1.048-4.663h.002a11.001 11.001 0 018.81-6.252c.377-.039.752-.084 1.138-.084 6.062 0 10.998 4.934 10.998 10.999 0 .498-.047.984-.108 1.463zm-10.89-20.542c-.473 0-.944.027-1.408.061a18.91 18.91 0 00-9.375 3.309L246.712 0h-7.775v54.885h7.824v-2a18.948 18.948 0 0017.63 2 19.005 19.005 0 005.494-3.287c4.081-3.498 6.678-8.683 6.678-14.481 0-10.536-8.54-19.078-19.076-19.078zm-29.553 8.114c1.1 3.116 1.336 5.052 1.336 9.345V54.89h-7.824V37.818c0-3.202-.045-5.328-.484-6.917-.015-.058-.038-.115-.053-.173-.462-1.519-1.308-2.539-2.895-3.538-1.15-.729-2.332-1.218-4.218-1.218-1.883 0-3.067.49-4.218 1.218-1.587 1-2.43 2.02-2.892 3.538-.017.06-.039.115-.054.173-.438 1.589-.483 3.715-.483 6.917V54.89h-7.827V.008h7.778l-.009 20.412c2.324-1.583 5.017-2.305 7.705-2.375a17.198 17.198 0 017.671 1.627c3.055 1.438 5.494 3.724 6.467 6.48zm-66.398 10.97c0 6.065 4.933 10.998 11 10.998 4.395 0 8.185-2.598 9.946-6.335h8.532c-2.086 8.28-9.554 14.413-18.478 14.413-10.54 0-19.078-8.538-19.078-19.076s8.538-19.078 19.078-19.078c9.024 0 16.565 6.271 18.55 14.69h-8.47c-1.702-3.886-5.576-6.612-10.08-6.612-6.067 0-11 4.935-11 11zm-16.656-10.97c1.101 3.116 1.338 5.052 1.338 9.345V54.89h-7.827V37.818c0-3.202-.042-5.328-.481-6.917-.015-.058-.039-.115-.056-.173-.458-1.519-1.305-2.539-2.892-3.538-1.15-.729-2.335-1.218-4.216-1.218-1.885 0-3.068.49-4.218 1.218-1.59 1-2.435 2.02-2.895 3.538-.017.06-.036.115-.055.173-.437 1.589-.482 3.715-.482 6.917V54.89h-7.826V19.342h7.775l-.008 1.078c2.326-1.583 5.018-2.305 7.709-2.375 2.68-.064 5.349.535 7.67 1.627 3.053 1.438 5.49 3.724 6.464 6.48zm-47.1-6.809h7.83v35.547h-7.776l.009-1.076c-2.329 1.581-5.02 2.305-7.707 2.376a17.19 17.19 0 01-7.673-1.628c-3.055-1.44-5.492-3.721-6.464-6.48-1.1-3.119-1.34-5.05-1.34-9.345V19.344h7.83v17.074c0 3.202.042 5.328.48 6.915.015.061.037.115.056.172.458 1.52 1.304 2.542 2.893 3.54 1.15.727 2.334 1.22 4.218 1.22 1.88 0 3.065-.493 4.217-1.22 1.587-.998 2.433-2.02 2.891-3.54.02-.06.04-.11.058-.172.434-1.587.479-3.713.479-6.915V19.344zm-37.433-1.297a17.145 17.145 0 017.67 1.625l-3.45 7.518c-1.153-.726-2.337-1.216-4.22-1.216-1.881 0-3.068.49-4.218 1.216-1.585 1.001-2.433 2.022-2.89 3.54-.02.058-.041.111-.058.17-.437 1.588-.482 3.716-.482 6.92v17.07h-7.826V19.344h7.777l-.01 1.076c2.328-1.58 5.018-2.307 7.707-2.373zM8.077 37.123c0 6.065 4.932 10.998 11.001 10.998 4.395 0 8.187-2.598 9.946-6.335h8.534c-2.086 8.28-9.556 14.413-18.48 14.413C8.54 56.2 0 47.661 0 37.123s8.54-19.078 19.078-19.078c9.022 0 16.563 6.271 18.55 14.69h-8.47c-1.7-3.886-5.574-6.612-10.08-6.612-6.069 0-11 4.935-11 11zm362.784-4.375c1.005-4.64 4.895-7.92 10.534-7.92 5.483 0 9.963 3.28 10.544 7.92h-21.078zM400 36.392c0-11.594-7.912-18.34-18.333-18.34-10.414 0-18.797 7.366-18.797 18.958 0 11.59 8.383 19.19 18.797 19.19 3.767 0 7.062-.7 10.967-2.768 3.907-2.075 6.612-6.6 7.044-9.29h-7.739c-1.879 3.366-5.23 5.008-9.944 5.008-6.416 0-11.134-5.008-11.134-9.782h29.06c.079-1.26.079-2.115.079-2.976z"></path></svg>