<svg width="125" height="108" viewBox="0 0 125 108" xmlns="http://www.w3.org/2000/svg" title="Rite Aid" class="m-company-logo__inline m-company-logo__inline--riteaid-mono-light"><path d="M124.82 42.43H.02c.04 0 .02-11.98-.01-12.07V6.8C.01 2.4 2.57 0 7.17 0h110.94a6.7 6.7 0 016.71 6.56v35.87zm-76.85-5.9h8.14V5.51h-8.14v31.02zM58.49 5.51v6.96h7.86v24.06h7.96V12.47h7.75V5.5H58.49v.01zm47.39 12.33H92.3v-5.37h15.97V5.5h-23.4v31.02h23.4v-6.56H92.3V24.4h13.58v-6.57.01zM45.49 36.59c.14.1-6.88-10.96-6.92-10.94a10.32 10.32 0 006.54-9.46c0-6.06-3.2-10.63-11.03-10.63h-16.1V36.6h7.42V22.33c3.2 4.37 10.42 14.27 10.4 14.26h9.7-.01zM25.4 20.29v-8.17h7.23c1.35 0 4.58.33 4.55 4.17-.03 3.84-3.59 4-4.54 4H25.4zM.02 46.5l.03.02h124.77v30.42c0 10.82-12.85 14.03-12.84 14L62.2 107.95 12.6 90.97c-.02 0-12.33-3.18-12.6-13.8v-17.5c-.02.03.05-13.16.02-13.17zm44.12 29.58H35.8l4.05-11.46.1.13 4.2 11.33h-.01zM23.56 87.94h7.75l1.9-5.38h13.35l2.01 5.38h7.85c.12-.05-12.82-33.67-12.87-33.68h-7.87c.07.07-12.08 33.7-12.12 33.68zm36.2-.06h7.8V54.45h-7.8v33.43zm20.78-6.06V60.71h5.44c7 0 8.58 3.96 8.64 10.56.05 5.5-1.69 10.55-9.14 10.55h-4.94zm-7.4-27.36v33.41H86.6c11.34 0 15.4-7.99 15.36-17.38-.07-11.91-7.78-16.03-12.61-16.03H73.14z" fill-rule="evenodd"></path></svg>