<svg width="73" height="83" viewBox="0 0 73 83" xmlns="http://www.w3.org/2000/svg" title="Apple" class="m-company-logo__inline m-company-logo__inline--apple-mono-light"><path d="M68.15 63.56c-1.2 2.77-2.61 5.3-4.25 7.64-2.23 3.19-4.06 5.39-5.47 6.61-2.18 2.01-4.53 3.04-7.03 3.1-1.8 0-3.97-.51-6.5-1.55a18.64 18.64 0 00-6.99-1.55c-2.23 0-4.63.52-7.2 1.55-2.56 1.04-4.62 1.58-6.2 1.63-2.4.1-4.8-.95-7.2-3.18-1.52-1.33-3.43-3.61-5.72-6.84a47.35 47.35 0 01-6.05-12.02A44.01 44.01 0 013 44.62c0-5.3 1.14-9.86 3.44-13.69 1.8-3.07 4.2-5.5 7.2-7.27 2.99-1.78 6.23-2.7 9.72-2.75 1.9 0 4.41.6 7.52 1.75 3.1 1.17 5.1 1.76 5.97 1.76.65 0 2.87-.7 6.62-2.07 3.54-1.28 6.54-1.8 9-1.6 6.64.54 11.63 3.16 14.95 7.88-5.94 3.6-8.88 8.65-8.82 15.12a16.68 16.68 0 005.47 12.56 18 18 0 005.47 3.6c-.44 1.27-.9 2.48-1.4 3.65zM52.9 3.58c0 3.95-1.45 7.64-4.33 11.05-3.47 4.06-7.67 6.4-12.22 6.04-.06-.47-.1-.97-.1-1.5 0-3.8 1.66-7.85 4.6-11.17a17.65 17.65 0 015.57-4.2c2.26-1.09 4.39-1.7 6.4-1.8.05.53.08 1.06.08 1.58z" fill-rule="evenodd"></path></svg>