<svg width="420" height="33" viewBox="0 0 420 33" xmlns="http://www.w3.org/2000/svg" title="Warby Parker" class="m-company-logo__inline m-company-logo__inline--warby-parker-mono-light"><path d="M406.87 16.62h-7.82V4.97h8.1c3.77.1 6.52 2.37 6.53 6.06-.04 3.26-2.07 5.5-6.8 5.6zm12.74 13.33c-2.34-3.25-5.85-8.06-7.38-10.17 3.44-1.54 5.84-4.6 5.84-8.83 0-5.42-4.3-10.2-10.82-10.2h-11.5c-.42 0-1.22.82-1.22 1.43v28.75c0 .22-.03.46.23.9.35.48.86.5 1.08.5h1.9c.1 0 .5.04 1-.47.36-.43.3-.7.32-.93v-10.2h8.5l7.72 10.88c.2.35.9.73 1.42.73h1.84c.13 0 1.46-.36 1.46-1.25.04-.43-.27-1-.4-1.13zm-37.4-.23c0-.26.15-.5-.28-1.2-.48-.4-.8-.4-1.04-.4-.03 0-.1.03-.18 0h-16.06V18.4h15.76c.95 0 1.33-1.36 1.33-1.73v-.9c0-.23-.42-1.6-1.33-1.6h-15.7v-9.2h15.87c.2.03.78 0 1.17-.53.3-.5.27-.78.28-1.07v-1.1c-.08-.26.05-.56-.3-1.12-.46-.4-.84-.4-1.06-.4h-19.38c-.13 0-.35 0-.73.25-.5.5-.34.9-.36.96v28.78c0 .28-.13.54.2 1 .33.5.83.6 1.1.6h19.38c.18 0 .47 0 .96-.4.5-.55.36-.86.37-1.13v-1.08zM337.76 14l9.85-11.12c.16-.2.32-.45.32-.76-.07-.85-.7-1.36-1.43-1.36h-1.83c-.62-.07-1.24.38-1.42.5l-14.8 16.95V2.24c0-.22.03-.52-.3-1.02-.37-.43-.88-.44-1.1-.44h-1.7c-.2 0-.6 0-1.06.37-.37.4-.36.82-.36 1.05v28.77c0 .23 0 .66.37.98.37.34.8.4 1.1.4h1.52c.27-.02.6 0 1.13-.33.43-.43.4-.88.4-1.05V24.5l6.14-7 10.47 13.93c.4.33.53.7 1.65.9h2c.46 0 1.4-.47 1.4-1.24-.02-.46-.15-.67-.32-.9L337.75 14zm-38.36 2.6h-7.9V4.97h8.1c3.77.1 6.58 2.37 6.6 6.06-.03 3.26-2.07 5.5-6.8 5.6zm5.33 3.16c3.44-1.54 5.86-4.6 5.85-8.83 0-5.42-4.27-10.2-10.9-10.2h-11.4c-.42 0-1.23.82-1.23 1.43v28.75c0 .22-.06.46.25.9.35.48.86.5 1.03.5h1.87c.08 0 .54.04 1-.47.4-.43.3-.7.3-.93v-10.2h8.55l7.77 10.88c.16.35.86.73 1.4.73h1.77c.18 0 1.5-.36 1.5-1.25.02-.43-.28-1-.4-1.13-2.36-3.25-5.8-8.06-7.37-10.17zm-49.25 1.32c1.37-2.75 4.37-8.9 6.37-13.27.02 0 .03-.02.03-.03.05.02.06.03.1.07l6.28 13.23h-12.78zm7.7-20.24c0-.02-.45-.9-1.3-.86-.8-.03-1.2.86-1.2.86-2.83 5.5-12.85 26.13-14.44 29.43-.14.14-.24.35-.24.85.1 1.18 1.3 1.18 1.5 1.18h1.5c.73.13 1.6-.7 1.64-1l2.98-6.12h16.57l3 6.24c.04.28.8.9 1.3.9h1.94c.33 0 1.4-.4 1.4-1.2 0-.4-.15-.57-.2-.8-1.77-3.7-11.76-23.85-14.47-29.48zM230.95 16.7c-2.46-.03-6.3-.03-8.16-.03V4.97h8.08c3.67.1 6.5 2.17 6.5 5.86 0 3.9-2.82 5.83-6.42 5.86zm.06-15.94H219.6c-.16-.02-.6 0-.92.38-.3.35-.38.7-.38 1.04v28.75c.07.22-.07.46.34.97.4.43.78.43.95.43h1.96c.15 0 .7 0 1.03-.57.28-.48.17-.67.2-.83V20.88h7.37c6.78 0 11.7-3.84 11.73-10.05C241.87 4.6 236.72.76 231.02.76zm-47 0h-1.8c-.58-.03-1.22.57-1.4.96-1.52 2.37-6.8 10.75-8.86 14.07-2.06-3.38-7.33-11.83-8.86-14.2 0-.3-1.03-1-1.48-.84h-1.58c-.3 0-1.4 0-1.6 1.2 0 .4.16.6.2.73 2.23 3.55 9.9 15.9 11.1 17.72v10.44c0 .3-.08.57.33 1.04.28.37.72.43.94.43h1.75c.27 0 .65 0 1.13-.43.38-.55.3-.85.3-1.15V20.42c1.2-1.8 8.58-13.62 10.98-17.57.1-.28.22-.37.25-.9-.07-1.13-1.23-1.2-1.4-1.2zm-43.87 27.4h-9.92v-9.68h9.84c4.3.06 6.5 2.05 6.53 4.9-.13 3.27-1.74 4.6-6.45 4.77zm-9.92-23.2h8.6c4.1.12 6.06 1.94 6.12 4.67-.24 3.5-1.2 4.54-5.4 4.72h-9.32V4.97zM146.7 16c1.73-1.33 2.82-3.56 2.75-6.53 0-5.6-5-8.7-10.9-8.7h-11.4c-.2 0-.63 0-1.05.35-.42.34-.42.85-.42 1.13v28.7c0 .46.73 1.4 1.36 1.4h13.43c6.5 0 10.63-3 10.65-8.94 0-3.3-1.73-6.05-4.4-7.42zm-45.6.64h-7.94V4.97h8.15c3.72.1 6.52 2.37 6.6 6.06-.15 3.26-2.15 5.53-6.8 5.6zm5.3 3.17c3.44-1.56 5.9-4.63 5.9-8.85-.08-5.43-4.32-10.2-10.88-10.2H90c-.18 0-.63.02-.93.4-.32.34-.35.7-.35 1.03v28.75c0 .22-.08.46.22.88.4.53.9.53 1.1.53h1.87c.18 0 .55 0 .98-.43.38-.5.26-.75.3-.97V20.8h8.55l7.77 10.8c.23.33.8.73 1.3.73h1.88c.2 0 1.48-.3 1.48-1.25.02-.44-.3-1-.4-1.13-2.34-3.22-5.8-8.06-7.35-10.16zm-49.5 1.3c1.3-2.75 4.32-8.9 6.38-13.27v-.06l.06.1c2.1 4.3 4.98 10.48 6.34 13.23h-12.8zM64.52.86c0-.02-.36-.9-1.23-.86-.8-.03-1.28.86-1.28.86C59.28 6.36 49.22 27 47.64 30.3c-.13.14-.28.35-.28.85.15 1.18 1.35 1.18 1.56 1.18h1.5c.7.13 1.55-.7 1.65-1l2.86-6.12h16.63l2.98 6.24c.02.28.84.9 1.3.9h2c.33 0 1.38-.4 1.38-1.2 0-.4-.1-.57-.22-.8C77.28 26.64 67.3 6.5 64.53.86zM41.6.76h-1.5c-.36-.12-1.53.43-1.53.95l-7.94 21.63-7.73-21.8c-.13-.68-1.2-.9-1.28-.85h-.12c-.4-.14-1.24.57-1.24.9l-7.48 21.77L4.64 1.9C4.54 1.42 3.88.7 3.18.76H1.24C1.12.76.94.74.5.92c-.38.23-.52.8-.5 1 0 .36.12.52.16.77l11.27 29.46c.43.7 1.06.84 1.26.84h.08s1 .06 1.32-.93c2.14-6.12 5.76-16.2 7.5-21 1.68 4.85 5.3 15.12 7.43 21 .13.7 1.24.96 1.36.93.08.03 1.2-.22 1.3-.9C35.45 22.3 40 10.5 42.9 2.7c.08-.26.12-.35.15-.74 0-1.04-1.32-1.2-1.44-1.2z" fill-rule="evenodd"></path></svg>