<svg width="860" height="123" viewBox="0 0 860 123" xmlns="http://www.w3.org/2000/svg" class="m-logo__svg"><path fill-rule="evenodd" d="M0 105.28h17.69V17.25H0V.04h124.5v35.32h-21.18v-18.1h-61.3v36.2h68.83v18.28H42.03v33.54h22.59v17.22H0zm155.49-4.08V17.25h-17.51V.04h62.34v17.21H180v75.79l10.69 10.65h50.08l10.86-10.65V17.25h-20.5V.04h62.35v17.21h-17.5v83.95l-21.02 21.3h-78.28zm151.98 4.08h17.69V17.25h-17.69V.04h127.84v34.79h-21.02V17.25h-64.8v34.97h69.53v17.57H349.5v35.5h64.8V87.7h21.18v34.79h-128zm141.86 0h17.7V17.25h-17.7V.04h64.97v17.21h-22.94v88.03h54.46V87.55h21.02v34.95h-117.5zm131.5 0h17.69V17.25h-17.69V.04h127.83v34.79h-21V17.25h-64.8v34.97h69.52v17.57h-69.52v35.5h64.8V87.7h21.18v34.79H580.83zm243.61-.35l10.68-10.83V28.43l-10.68-10.82h-59.72v87.32h59.72zm-101.75.36h17.69V17.25h-17.69V.04h115.76l21 21.3v79.86l-21 21.3H722.69v-17.21z"></path></svg>